<svg xmlns="http://www.w3.org/2000/svg" width="24.015" height="21.884">
  <path id="chat-send-icon" d="M1415.173 736.669l-21.094-9.534h-.1a2.074 2.074 0 00-1.117 0 1.528 1.528 0 00-.711 1.928l3.752 8.924-3.752 8.823a1.293 1.293 0 000 1.217 2.076 2.076 0 00.811.811.914.914 0 00.507.1 1.286 1.286 0 00.608-.1l21.094-9.533a1.226 1.226 0 00.71-.71 1.457 1.457 0 00-.708-1.926zm-20.587-7.1l16.327 7.3h-13.183zm3.144 9.431h13.184l-16.327 7.3z" transform="translate(-1391.999 -727.058)" fill="#1b222b"/>
</svg>