<svg xmlns="http://www.w3.org/2000/svg" width="24" height="23.915">
  <path id="chats-icon" d="M12.462 3.692a11.38 11.38 0 00-6.75 2.079A6.71 6.71 0 002.769 11.1a6.841 6.841 0 003.692 5.951v5.021l5.212-3.606c.259.018.516.038.788.038a11.379 11.379 0 006.75-2.079 6.711 6.711 0 002.943-5.325 6.711 6.711 0 00-2.942-5.326 11.381 11.381 0 00-6.75-2.082zm0 1.846a9.607 9.607 0 015.652 1.718 4.826 4.826 0 012.194 3.84 4.827 4.827 0 01-2.194 3.84 9.606 9.606 0 01-5.652 1.718c-.323 0-.646-.019-.974-.049l-.332-.029-2.848 1.972V15.97l-.528-.251A4.943 4.943 0 014.615 11.1a4.826 4.826 0 012.194-3.84 9.606 9.606 0 015.653-1.722zm11.517 5.906a7.786 7.786 0 01-.384 2.1 4.485 4.485 0 011.329 3.09 5.018 5.018 0 01-3.164 4.623l-.528.251v2.578l-2.849-1.971-.332.029c-.32.029-.644.05-.974.05a9.739 9.739 0 01-5.364-1.514l-1.59 1.1a11.277 11.277 0 006.954 2.261c.27 0 .538-.011.8-.029l5.2 3.593v-4.95a6.765 6.765 0 003.692-6.02 6.629 6.629 0 00-2.791-5.19z" transform="translate(-2.769 -3.69)" fill="currentColor"/>
</svg>
