<svg xmlns="http://www.w3.org/2000/svg" width="24" height="19.2">
  <path id="clients-icon" d="M12.8 4a5.6 5.6 0 00-3.128 10.238A8.018 8.018 0 004.8 21.6h1.6a6.391 6.391 0 014.341-6.059L12.6 17.4l-1.4 4.2 1.6 1.6 1.6-1.6-1.4-4.2 1.859-1.859A6.391 6.391 0 0119.2 21.6h1.6a8.018 8.018 0 00-4.872-7.363A5.6 5.6 0 0012.8 4zm0 1.6a3.988 3.988 0 11-2.832 1.168A4 4 0 0112.8 5.6zm6.4.856v1.628a2.736 2.736 0 010 5.431v1.759a4.874 4.874 0 014 4.726h1.6a6.48 6.48 0 00-3.459-5.653A4.2 4.2 0 0023.2 10.8a4.357 4.357 0 00-4-4.344zm-12.8.007a4.409 4.409 0 00-4 4.338 4.2 4.2 0 001.859 3.547A6.48 6.48 0 00.8 20h1.6a4.874 4.874 0 014-4.725v-1.759A2.738 2.738 0 014 10.8a2.777 2.777 0 012.4-2.712z" transform="translate(-.8 -4)" fill="#187cbc"/>
</svg>
