<svg xmlns="http://www.w3.org/2000/svg" width="18.286" height="24">
  <g id="csv-icon" transform="translate(-478.857 -505)">
    <path id="Path_13" data-name="Path 13" d="M22.857 25.714H4.571v-24h12.572l5.714 5.714z" transform="translate(474.286 503.286)" fill="#4db6ac"/>
    <path id="Path_14" data-name="Path 14" d="M22 8h-5.429V2.571z" transform="translate(474.286 503.286)" fill="#e0f2f1"/>
    <path id="Path_15" data-name="Path 15" d="M11.454 16.963a2.126 2.126 0 01-.547 1.473 1.932 1.932 0 01-1.422.5 1.792 1.792 0 01-1.478-.636 2.815 2.815 0 01-.514-1.811v-.957a2.741 2.741 0 01.531-1.807 1.821 1.821 0 011.476-.633 1.834 1.834 0 011.412.519 2.361 2.361 0 01.549 1.492H10.31a1.528 1.528 0 00-.186-.83.733.733 0 00-.623-.228.7.7 0 00-.653.322 2.254 2.254 0 00-.2 1.061V16.5a2.47 2.47 0 00.19 1.164.7.7 0 00.65.317.753.753 0 00.625-.221 1.456 1.456 0 00.2-.8zm3.109.4a.713.713 0 00-.178-.525 2.042 2.042 0 00-.647-.369 3 3 0 01-1.23-.76 1.524 1.524 0 01-.375-1.029 1.442 1.442 0 01.51-1.154 1.921 1.921 0 011.3-.436 1.943 1.943 0 01.934.221 1.528 1.528 0 01.631.623 1.874 1.874 0 01.221.914h-1.15a.947.947 0 00-.17-.607.6.6 0 00-.49-.209.613.613 0 00-.469.178.67.67 0 00-.168.479.589.589 0 00.187.424 2.169 2.169 0 00.664.393 2.837 2.837 0 011.209.738 1.645 1.645 0 01.377 1.113 1.466 1.466 0 01-.473 1.16 1.874 1.874 0 01-1.285.418 2.216 2.216 0 01-1-.226 1.7 1.7 0 01-.709-.649 1.88 1.88 0 01-.256-1h1.153a1.088 1.088 0 00.191.715.783.783 0 00.625.223q.6 0 .6-.633zm3.77-.07l.957-4.125h1.281l-1.641 5.687h-1.2l-1.624-5.685h1.274z" transform="translate(474.286 503.286)" fill="#00695c"/>
  </g>
</svg>
