<svg xmlns="http://www.w3.org/2000/svg" width="24.329" height="21.027">
  <g id="dashboard-icon" transform="translate(-320.835 -133.473)">
    <path id="Path_5" data-name="Path 5" d="M16 15a2 2 0 102 2 2 2 0 00-2-2z" transform="translate(317 128.5)" fill="currentColor"/>
    <path id="Path_6" data-name="Path 6" d="M333 145.5l6.892-3.976" fill="none" stroke="currentColor" stroke-miterlimit="10" stroke-width="2"/>
    <path id="Path_7" data-name="Path 7" d="M16 8a1 1 0 101 1 1 1 0 00-1-1zm-8 8a1 1 0 101 1 1 1 0 00-1-1zm16 0a1 1 0 101 1 1 1 0 00-1-1zm-4-6.928a1 1 0 101 1 1 1 0 00-1-1zM9.072 20a1 1 0 101 1 1 1 0 00-1-1zm13.856-8a1 1 0 101 1 1 1 0 00-1-1zM12 9.072a1 1 0 101 1 1 1 0 00-1-1zM22.928 20a1 1 0 101 1 1 1 0 00-1-1zM9.072 12a1 1 0 101 1 1 1 0 00-1-1z" transform="translate(317 128.5)" fill="currentColor"/>
    <path id="Path_8" data-name="Path 8" d="M340.521 153.5a11 11 0 10-15.042 0z" fill="none" stroke="currentColor" stroke-miterlimit="10" stroke-width="2"/>
  </g>
</svg>
