<svg xmlns="http://www.w3.org/2000/svg" width="23.991" height="23.981">
  <g id="drivers-icon" transform="translate(-402.002 -203.01)">
    <path id="Path_13" data-name="Path 13" d="M414 204.1a5.45 5.45 0 105.45 5.45 5.45 5.45 0 00-5.45-5.45z" fill="none" stroke="#187cbc" stroke-miterlimit="10" stroke-width="2.18"/>
    <path id="Path_14" data-name="Path 14" d="M28.852 23.161l-.93-1.5a12.041 12.041 0 00-10.482-5.314 12.041 12.041 0 00-10.464 5.288l-.947 1.526a3.9 3.9 0 001.308 5.4l1.006.6a6.055 6.055 0 01.9-2l-.784-.461a1.721 1.721 0 01-.578-2.384l.964-1.552c.1-.172 2.564-4.228 8.6-4.228s8.495 4.056 8.611 4.253L27 24.311a1.72 1.72 0 01-.578 2.383l-.788.473a6.033 6.033 0 01.9 2l1.006-.6a3.9 3.9 0 001.309-5.4z" transform="translate(396.559 197.56)" fill="#187cbc"/>
    <path id="Path_15" data-name="Path 15" d="M407.459 226.991c0-2.408 2.928-4.36 6.54-4.36s6.54 1.952 6.54 4.36" fill="none" stroke="#187cbc" stroke-miterlimit="10" stroke-width="2.18"/>
  </g>
</svg>
