<svg xmlns="http://www.w3.org/2000/svg" width="23.998" height="23.992">
  <path id="Path_1" data-name="Path 1" d="M4.8 2.515L4.287 3 3 4.287l-.485.513.372.6L4.8 8.6l.257.457h2.688l3.655 3.632a12715.78 12715.78 0 01-7.573 7.6 3.587 3.587 0 00.029 5.144 3.588 3.588 0 005.115 0L9 25.406l5.63-5.658 5.658 5.687.086.057a3.586 3.586 0 005.058-.057v-.029h.029a3.6 3.6 0 00-.029-5.115l-.029-.029-4.772-4.744A6.4 6.4 0 0026.4 9.231h.029a.305.305 0 000-.057v-.029a4.733 4.733 0 00-.68-2.945l-.629-.97-4.258 4.258-1.286-1.343L23.92 3.8l-1.257-.514a6.371 6.371 0 00-8.945 5.858 5.808 5.808 0 00.142 1.056c-.4.4-.7.729-1.172 1.2L9.059 7.773V5.058L8.6 4.8 5.4 2.886zm15.319 2.057c.129 0 .218.075.343.086L17 8.116l.629.657 2.571 2.658.629.657 3.629-3.629c.018.211.168.364.143.6v.086a4.581 4.581 0 01-4.572 4.572 6.523 6.523 0 01-1.2-.171l-.486-.086-.343.34L7.687 24.148h-.028v.029a1.744 1.744 0 01-2.543-.029v-.028h-.029a1.744 1.744 0 01.029-2.543c.347-.347 7.059-7.116 10.345-10.4l.372-.372-.143-.514a5.59 5.59 0 01-.143-1.143 4.581 4.581 0 014.572-4.576zM5.087 4.8L7.23 6.116v.914l-.2.2h-.914L4.8 5.087zm13.374 11.118l5.687 5.658v.024h.029a1.744 1.744 0 01-.029 2.543h-.028v.029a1.744 1.744 0 01-2.543-.029l-5.658-5.687z" transform="translate(-2.515 -2.515)" fill="#187cbc"/>
</svg>