<svg xmlns="http://www.w3.org/2000/svg" width="272.942" height="58.002">
  <g id="gps-buddy-logo" transform="translate(-295 -363)">
    <path id="Path_18" data-name="Path 18" d="M17.922-15.844a4.509 4.509 0 00-2.672-3.3 6.562 6.562 0 00-2.641-.516 5.735 5.735 0 00-4.57 2.1q-1.789 2.1-1.789 6.32 0 4.25 1.938 6.016a6.362 6.362 0 004.406 1.766 5.692 5.692 0 003.969-1.4 6.045 6.045 0 001.906-3.664h-5.328v-3.844h9.594V0h-3.188l-.484-2.875a11.035 11.035 0 01-2.5 2.313A8.793 8.793 0 0111.875.609a9.739 9.739 0 01-7.5-3.172Q1.328-5.75 1.328-11.281a12.794 12.794 0 013.078-8.969 10.49 10.49 0 018.141-3.375A10.641 10.641 0 0119.6-21.4a8.279 8.279 0 013.055 5.555zm23.655.141a3.117 3.117 0 00-.945-2.562 4.1 4.1 0 00-2.648-.766H33.5v6.781h4.484a3.888 3.888 0 002.648-.828 3.316 3.316 0 00.945-2.622zm4.766-.031q0 4.078-2.062 5.766A9.083 9.083 0 0138.39-8.28H33.5V0h-4.782v-23.031h10.031a8.171 8.171 0 015.531 1.781q2.062 1.781 2.062 5.516zm8.374 8.625a4.729 4.729 0 00.859 2.359q1.172 1.422 4.016 1.422a8.475 8.475 0 002.765-.372 2.673 2.673 0 002.016-2.672 1.972 1.972 0 00-1-1.766 10.753 10.753 0 00-3.141-1.078l-2.437-.547a15.4 15.4 0 01-4.969-1.766 5.616 5.616 0 01-2.326-4.987 6.656 6.656 0 012.25-5.141Q55-23.7 59.357-23.7a10.049 10.049 0 016.211 1.93 6.89 6.89 0 012.7 5.6h-4.63a3.3 3.3 0 00-1.812-2.953 6.079 6.079 0 00-2.8-.578 5.222 5.222 0 00-2.969.75 2.388 2.388 0 00-1.109 2.094 1.982 1.982 0 001.094 1.844 13.388 13.388 0 003 .953l3.969.953a10.261 10.261 0 013.937 1.672 5.631 5.631 0 012.063 4.7A6.637 6.637 0 0166.6-1.492 10.114 10.114 0 0159.779.594 11.063 11.063 0 0152.7-1.461a6.828 6.828 0 01-2.578-5.648zm17.436-3.922h8.969v4.219h-8.97zm18.311-8v5.078h5.656a4.716 4.716 0 002.461-.57 2.167 2.167 0 00.945-2.023 2.06 2.06 0 00-1.25-2.125 8.846 8.846 0 00-2.75-.359zm0 8.891V-4h5.656a5.552 5.552 0 002.359-.406 2.893 2.893 0 001.531-2.875 2.47 2.47 0 00-1.484-2.469 5.947 5.947 0 00-2.328-.391zm6.594-12.891q4.234.062 6 2.453a5.837 5.837 0 011.063 3.516 5.141 5.141 0 01-1.062 3.391 5.484 5.484 0 01-1.75 1.313 5.135 5.135 0 012.664 2.031 6.088 6.088 0 01.9 3.375 6.707 6.707 0 01-1.031 3.672 6.364 6.364 0 01-1.642 1.811 6.4 6.4 0 01-2.619 1.157A16.134 16.134 0 0196.308 0H85.87v-23.031zm13.124 0h4.891v14.156a7.994 7.994 0 00.563 3.469q.875 1.938 3.813 1.938 2.922 0 3.8-1.937a7.994 7.994 0 00.563-3.469v-14.157h4.888v14.156a11.858 11.858 0 01-1.141 5.719q-2.125 3.75-8.109 3.75t-8.125-3.75a11.858 11.858 0 01-1.141-5.719zm29.061 4V-4h4.438a4.792 4.792 0 004.75-3.359 11.849 11.849 0 00.734-4.391 10.809 10.809 0 00-1.1-5.4q-1.1-1.883-4.383-1.883zm5.25-4a12.105 12.105 0 013.563.5 7.6 7.6 0 013.922 2.922 10.249 10.249 0 011.641 3.719 17.852 17.852 0 01.438 3.813 15.308 15.308 0 01-1.846 7.777 8.319 8.319 0 01-7.719 4.3h-9.922v-23.031zm19.139 4V-4h4.438a4.792 4.792 0 004.75-3.359 11.849 11.849 0 00.734-4.391 10.809 10.809 0 00-1.1-5.4q-1.1-1.883-4.383-1.883zm5.25-4a12.105 12.105 0 013.563.5 7.6 7.6 0 013.922 2.922 10.249 10.249 0 011.641 3.719 17.852 17.852 0 01.438 3.813A15.308 15.308 0 01176.6-4.3a8.319 8.319 0 01-7.718 4.3h-9.922v-23.031zm27.608 0h5.453l-7.7 14.375V0h-4.812v-8.656l-7.969-14.375h5.672L191.912-13z" transform="translate(365.999 403)" fill="#1b222b"/>
    <path id="Path_10" data-name="Path 10" d="M311.625 303.865a33.363 33.363 0 0112.8 12.8v-12.8z" transform="translate(28.578 59.135)" fill="#187cbc"/>
    <path id="Path_11" data-name="Path 11" d="M248.825 366.664v12.8h12.8a33.371 33.371 0 01-12.8-12.8z" transform="translate(46.175 41.538)" fill="#187cbc"/>
    <path id="Path_12" data-name="Path 12" d="M282.39 325.912v-5.758a17.275 17.275 0 00-17.275 17.275h5.758a11.516 11.516 0 0111.518-11.517z" transform="translate(41.61 54.571)" fill="#187cbc"/>
    <path id="Path_13" data-name="Path 13" d="M289.115 355.671v5.758a17.275 17.275 0 0017.275-17.275h-5.758a11.517 11.517 0 01-11.517 11.517z" transform="translate(34.885 47.846)" fill="#187cbc"/>
    <path id="Path_14" data-name="Path 14" d="M286.313 338.473v-4.319a7.2 7.2 0 00-7.2 7.2h4.319a2.879 2.879 0 012.881-2.881z" transform="translate(37.688 50.648)" fill="#187cbc"/>
    <path id="Path_15" data-name="Path 15" d="M289.115 347.033v4.319a7.2 7.2 0 007.2-7.2H292a2.879 2.879 0 01-2.881 2.881z" transform="translate(34.886 47.846)" fill="#187cbc"/>
    <path id="Path_16" data-name="Path 16" d="M277.907 309.912v-5.758a28.792 28.792 0 00-28.792 28.792h5.758a23.033 23.033 0 0123.035-23.034z" transform="translate(46.094 59.054)" fill="#187cbc"/>
    <path id="Path_17" data-name="Path 17" d="M289.115 367.187v5.758a28.792 28.792 0 0028.792-28.792h-5.758a23.034 23.034 0 01-23.034 23.034z" transform="translate(34.886 47.846)" fill="#187cbc"/>
  </g>
</svg>