<svg xmlns="http://www.w3.org/2000/svg" width="168.487" height="36.001">
  <g id="gps-buddy-header-logo" transform="translate(-188 -189)">
    <path id="Path_1" data-name="Path 1" d="M7.842.361a7.012 7.012 0 003.325-.742A5.217 5.217 0 0013.33-2.49a6.538 6.538 0 00.762-3.232V-7.51H8.174v2.148h3.047l-.01.264a3.036 3.036 0 01-.449 1.553A2.85 2.85 0 019.6-2.51a3.772 3.772 0 01-1.709.371 3.4 3.4 0 01-2.012-.6 3.879 3.879 0 01-1.318-1.709 6.73 6.73 0 01-.469-2.632v-.02a6.752 6.752 0 01.449-2.583 3.77 3.77 0 011.274-1.68 3.275 3.275 0 011.958-.591 3.639 3.639 0 012.1.586 2.833 2.833 0 011.152 1.641l.02.1h2.93l-.02-.1a5.127 5.127 0 00-1.04-2.471 5.629 5.629 0 00-2.153-1.66 7.182 7.182 0 00-2.988-.6 6.754 6.754 0 00-3.545.9A6.031 6.031 0 001.9-10.991a8.738 8.738 0 00-.82 3.921v.02A8.841 8.841 0 001.9-3.1 5.974 5.974 0 004.238-.537a6.933 6.933 0 003.6.9zm10.741-4.8h4.336a5.425 5.425 0 002.6-.6 4.285 4.285 0 001.733-1.68 5.025 5.025 0 00.62-2.539v-.02a5 5 0 00-.62-2.529 4.318 4.318 0 00-1.733-1.685 5.389 5.389 0 00-2.6-.6h-4.336v2.334H22.2a2.831 2.831 0 011.978.645 2.369 2.369 0 01.708 1.846v.02a2.385 2.385 0 01-.712 1.847 2.817 2.817 0 01-1.978.649h-3.613zM17.109 0h2.949v-14.092h-2.949zM35.7.361A7.481 7.481 0 0038.734-.2 4.469 4.469 0 0040.7-1.782a4.218 4.218 0 00.685-2.418v-.01a3.37 3.37 0 00-1.021-2.6 6.77 6.77 0 00-3.257-1.406l-1.494-.3a4.388 4.388 0 01-1.791-.684 1.36 1.36 0 01-.552-1.118v-.01a1.435 1.435 0 01.3-.913 1.961 1.961 0 01.85-.6 3.458 3.458 0 011.27-.215 3.564 3.564 0 011.3.22 2.284 2.284 0 01.9.6 1.771 1.771 0 01.425.889l.02.117h2.773l-.01-.127a4.044 4.044 0 00-.752-2.1 4.482 4.482 0 00-1.846-1.455 6.8 6.8 0 00-2.817-.532 6.725 6.725 0 00-2.773.542 4.557 4.557 0 00-1.9 1.519 3.845 3.845 0 00-.693 2.285v.01a3.614 3.614 0 001 2.627A6.07 6.07 0 0034.51-6l1.484.3a4.943 4.943 0 011.88.7 1.323 1.323 0 01.562 1.113v.01a1.468 1.468 0 01-.337.952 2.213 2.213 0 01-.933.649 3.773 3.773 0 01-1.387.234 4.351 4.351 0 01-1.455-.225 2.53 2.53 0 01-1.011-.62 1.558 1.558 0 01-.435-.923l-.01-.1h-2.84l.01.156a3.939 3.939 0 00.8 2.173 4.572 4.572 0 001.944 1.435A7.677 7.677 0 0035.7.361zM44.2-4.4h6.494v-2.573H44.2zM55.612 0h4.854a6.272 6.272 0 002.6-.493 3.841 3.841 0 001.68-1.4 3.81 3.81 0 00.591-2.134v-.02a3.25 3.25 0 00-.415-1.631 3.336 3.336 0 00-1.143-1.191 3.553 3.553 0 00-1.665-.531v-.176a2.836 2.836 0 001.3-.537 3.132 3.132 0 00.913-1.074 2.949 2.949 0 00.337-1.387v-.02a3.3 3.3 0 00-.522-1.87 3.349 3.349 0 00-1.494-1.211A5.846 5.846 0 0060.3-14.1h-4.688v2.2h3.936a2.488 2.488 0 011.636.483 1.651 1.651 0 01.581 1.343v.02a1.59 1.59 0 01-.635 1.348 2.992 2.992 0 01-1.826.479h-3.692v1.943h4.033a4.135 4.135 0 011.47.229 1.869 1.869 0 01.908.679 1.907 1.907 0 01.308 1.1v.02a1.836 1.836 0 01-.669 1.533 3.094 3.094 0 01-1.948.527h-4.1zm-1.474 0h2.949v-14.092h-2.949zM74 .361a7.012 7.012 0 003.14-.654 4.837 4.837 0 002.041-1.831 5.155 5.155 0 00.719-2.739v-9.229h-2.951v8.965a3.051 3.051 0 01-.762 2.178 2.857 2.857 0 01-2.187.81 2.876 2.876 0 01-2.187-.811 3.028 3.028 0 01-.771-2.178v-8.965h-2.95v9.229a5.1 5.1 0 00.728 2.744 4.913 4.913 0 002.05 1.827A6.988 6.988 0 0074 .361zM83.4 0h5.55a7.17 7.17 0 003.584-.835 5.464 5.464 0 002.251-2.427 8.76 8.76 0 00.776-3.867v-.02a8.291 8.291 0 00-.781-3.76 5.419 5.419 0 00-2.256-2.368 7.288 7.288 0 00-3.574-.815H83.4zm2.949-2.432v-9.228h2.129a4.281 4.281 0 012.192.532 3.455 3.455 0 011.4 1.553 5.749 5.749 0 01.484 2.475v.02a6.093 6.093 0 01-.474 2.534 3.42 3.42 0 01-1.38 1.577 4.285 4.285 0 01-2.217.537zM98.481 0h5.547a7.17 7.17 0 003.584-.835 5.464 5.464 0 002.251-2.427 8.76 8.76 0 00.776-3.867v-.02a8.291 8.291 0 00-.781-3.76 5.419 5.419 0 00-2.256-2.368 7.288 7.288 0 00-3.574-.815h-5.547zm2.949-2.432v-9.228h2.129a4.281 4.281 0 012.192.532 3.455 3.455 0 011.4 1.553 5.749 5.749 0 01.483 2.476v.02a6.093 6.093 0 01-.474 2.534 3.42 3.42 0 01-1.382 1.577 4.285 4.285 0 01-2.217.537zM116.625 0h2.949v-5.264l4.912-8.828h-3.193l-3.1 5.928h-.176l-3.105-5.928h-3.193l4.9 8.828z" transform="translate(232.001 214)" fill="#1b222b"/>
    <path id="Path_2" data-name="Path 2" d="M311.625 303.865a20.708 20.708 0 017.943 7.943v-7.943z" transform="translate(-95.568 -114.865)" fill="#187cbc"/>
    <path id="Path_3" data-name="Path 3" d="M248.825 366.664v7.944h7.943a20.713 20.713 0 01-7.943-7.944z" transform="translate(-60.825 -149.607)" fill="#187cbc"/>
    <path id="Path_4" data-name="Path 4" d="M275.837 323.728v-3.574a10.722 10.722 0 00-10.722 10.722h3.574a7.148 7.148 0 017.148-7.148z" transform="translate(-69.837 -123.877)" fill="#187cbc"/>
    <path id="Path_5" data-name="Path 5" d="M289.115 351.3v3.574a10.722 10.722 0 0010.722-10.722h-3.574a7.148 7.148 0 01-7.148 7.148z" transform="translate(-83.115 -137.155)" fill="#187cbc"/>
    <path id="Path_6" data-name="Path 6" d="M283.583 336.835v-2.681a4.468 4.468 0 00-4.468 4.468h2.685a1.787 1.787 0 011.783-1.787z" transform="translate(-77.582 -131.622)" fill="#187cbc"/>
    <path id="Path_7" data-name="Path 7" d="M289.115 345.941v2.681a4.468 4.468 0 004.468-4.468H290.9a1.787 1.787 0 01-1.785 1.787z" transform="translate(-83.114 -137.154)" fill="#187cbc"/>
    <path id="Path_8" data-name="Path 8" d="M266.986 307.728v-3.574a17.871 17.871 0 00-17.871 17.871h3.574a14.3 14.3 0 0114.294-14.3z" transform="translate(-60.985 -115.025)" fill="#187cbc"/>
    <path id="Path_9" data-name="Path 9" d="M289.115 358.451v3.574a17.871 17.871 0 0017.871-17.871h-3.574a14.3 14.3 0 01-14.294 14.3z" transform="translate(-83.114 -137.154)" fill="#187cbc"/>
  </g>
</svg>