<svg xmlns="http://www.w3.org/2000/svg" width="22.154" height="24.001">
  <g id="locations-icon" transform="translate(-199.203 -203.001)">
    <path id="Path_6" data-name="Path 6" d="M215.819 209.462c0 3.059-5.538 11.077-5.538 11.077s-5.539-8.018-5.539-11.077a5.539 5.539 0 1111.077 0z" fill="none" stroke="#187cbc" stroke-miterlimit="10" stroke-width="1.846"/>
    <path id="Path_7" data-name="Path 7" d="M14.769 7.385a1.846 1.846 0 101.846 1.846 1.846 1.846 0 00-1.846-1.846zm4.715 10.564l-1.125 1.688c3.488.5 5.641 1.675 5.641 2.517 0 1.1-3.681 2.769-9.231 2.769s-9.231-1.667-9.231-2.769c0-.842 2.153-2.011 5.641-2.517l-1.125-1.688c-3.575.648-6.362 2.064-6.362 4.206 0 3.03 5.573 4.615 11.077 4.615s11.077-1.585 11.077-4.615c0-2.143-2.787-3.555-6.362-4.207z" transform="translate(195.511 200.231)" fill="#187cbc"/>
  </g>
</svg>
