<svg xmlns="http://www.w3.org/2000/svg" width="18.286" height="24">
  <g id="pdf-icon" transform="translate(-478.857 -505)">
    <path id="Path_18" data-name="Path 18" d="M22.857 25.714H4.571v-24h12.572l5.714 5.714z" transform="translate(474.286 503.286)" fill="#ff5722"/>
    <path id="Path_19" data-name="Path 19" d="M22 8h-5.429V2.571z" transform="translate(474.286 503.286)" fill="#fbe9e7"/>
    <path id="Path_20" data-name="Path 20" d="M9.143 22.286a1.691 1.691 0 01-.571-.114A1.026 1.026 0 018 20.914c.229-.686 1.486-1.543 3.143-2.286a20.557 20.557 0 001.657-4 6.594 6.594 0 01-.857-2.857 1.973 1.973 0 01.286-1.029 1.256 1.256 0 011.029-.457 1.1 1.1 0 011.086.8 6.081 6.081 0 01-.286 3.371 11.434 11.434 0 002 2.571 7.91 7.91 0 012.686-.229C19.829 16.971 20 17.714 20 18c0 1.2-1.257 1.2-1.714 1.2a3.827 3.827 0 01-2.457-.971A21.44 21.44 0 0012 19.543a9.756 9.756 0 01-1.657 2.229 2.012 2.012 0 01-1.2.514zm.686-1.657a2.016 2.016 0 00-.629.514 1.814 1.814 0 00.629-.514zm7.771-2.686a2.868 2.868 0 00.686.114 3.341 3.341 0 00.571-.057 2.138 2.138 0 00-1.257-.057zm-4-2.057c-.229.686-.571 1.429-.857 2.114.686-.229 1.371-.457 2.057-.629a9.763 9.763 0 01-1.2-1.485zm-.343-4.457H13.2c-.057.057-.114.457.114 1.314a2.683 2.683 0 00-.057-1.314z" transform="translate(474.286 503.286)" fill="#fff"/>
  </g>
</svg>
