<svg xmlns="http://www.w3.org/2000/svg" width="23.115" height="24.005">
  <path id="roles-icon" d="M14.222 4.444a6.217 6.217 0 00-3.476 11.375A8.909 8.909 0 005.333 24h1.778a7.07 7.07 0 012.122-5.069l2.132 2.708 3.351-2.233-.986-1.479-1.983 1.323-1.1-1.4a7.071 7.071 0 013.573-.965 6.222 6.222 0 100-12.444zm0 1.778a4.431 4.431 0 11-3.146 1.3 4.444 4.444 0 013.146-1.3zM21.333 16v1.875a4.337 4.337 0 00-1.545.653l-1.34-1.333-1.253 1.257 1.333 1.33a4.347 4.347 0 00-.66 1.552H16v1.778h1.868a4.347 4.347 0 00.66 1.552l-1.333 1.33 1.253 1.257 1.34-1.333a4.337 4.337 0 001.545.653v1.875h1.778v-1.877a4.337 4.337 0 001.545-.653L26 27.25l1.253-1.257-1.333-1.33a4.347 4.347 0 00.66-1.552h1.868v-1.778h-1.872a4.347 4.347 0 00-.66-1.552l1.333-1.33L26 17.194l-1.34 1.333a4.337 4.337 0 00-1.545-.653V16zm.889 3.556a2.654 2.654 0 11-1.89.777 2.667 2.667 0 011.89-.777zm0 1.778a.889.889 0 10.889.889.889.889 0 00-.889-.889z" transform="translate(-5.333 -4.441)" fill="#187cbc"/>
</svg>
