<svg xmlns="http://www.w3.org/2000/svg" width="23.5" height="23.5">
  <g id="settings-icon" transform="translate(-476.25 -505.25)" fill="none" stroke="#1b222b" stroke-linecap="round" stroke-linejoin="round" stroke-width="1.5">
    <circle id="Ellipse_1" data-name="Ellipse 1" cx="3" cy="3" r="3" transform="translate(485 514)"/>
    <path id="Path_7" data-name="Path 7" d="M19.4 15a1.65 1.65 0 00.33 1.82l.06.06a2 2 0 11-2.83 2.83l-.06-.06a1.663 1.663 0 00-2.82 1.18V21a2 2 0 01-4 0v-.09A1.65 1.65 0 009 19.4a1.65 1.65 0 00-1.82.33l-.06.06a2 2 0 01-2.83-2.83l.06-.06a1.663 1.663 0 00-1.18-2.82H3a2 2 0 010-4h.09A1.65 1.65 0 004.6 9a1.65 1.65 0 00-.33-1.82l-.06-.06a2 2 0 012.83-2.83l.06.06a1.65 1.65 0 001.82.33H9a1.65 1.65 0 001-1.51V3a2 2 0 114 0v.09a1.663 1.663 0 002.82 1.18l.06-.06a2 2 0 112.83 2.83l-.06.06a1.65 1.65 0 00-.33 1.82V9a1.65 1.65 0 001.51 1H21a2 2 0 010 4h-.09a1.65 1.65 0 00-1.51 1z" transform="translate(476 505)"/>
  </g>
</svg>