<svg xmlns="http://www.w3.org/2000/svg" width="24" height="24">
  <path id="tacho-icon" d="M14.769 2.769a12 12 0 1012 12 12 12 0 00-12-12zm0 1.846a10.141 10.141 0 11-7.184 2.97 10.154 10.154 0 017.184-2.97zm3.952 4.875l-3.49 3.49a1.779 1.779 0 00-.462-.058 1.859 1.859 0 00-1.846 1.846 1.779 1.779 0 00.058.462l-1.644 1.644a2.822 2.822 0 00-1.183-.26 2.771 2.771 0 00-1.962.808l1.3 1.3a.936.936 0 011.327 0v.029a.927.927 0 010 1.3l1.3 1.3a2.793 2.793 0 00.548-3.144l1.644-1.644a1.779 1.779 0 00.462.058 1.859 1.859 0 001.846-1.846 1.779 1.779 0 00-.058-.462l3.49-3.49z" transform="translate(-2.769 -2.769)" fill="currentColor"/>
</svg>
