<svg xmlns="http://www.w3.org/2000/svg" width="21.818" height="24">
  <path id="users-icon" d="M17.455 5.455a7.639 7.639 0 00-4.261 13.977 10.941 10.941 0 00-6.649 10.023h2.182a8.7 8.7 0 014.159-7.432 4.935 4.935 0 009.136 0 8.7 8.7 0 014.159 7.432h2.182a10.941 10.941 0 00-6.648-10.023 7.639 7.639 0 00-4.26-13.977zm0 2.182a5.436 5.436 0 11-3.863 1.592 5.455 5.455 0 013.863-1.592zm0 13.091a8.711 8.711 0 012.557.375 2.712 2.712 0 01-5.114 0 8.711 8.711 0 012.557-.376z" transform="translate(-6.545 -5.455)" fill="#187cbc"/>
</svg>
