<svg xmlns="http://www.w3.org/2000/svg" width="23.997" height="18.023">
  <g id="vehicles-icon" transform="translate(-164.004 -205.989)">
    <path id="Path_2" data-name="Path 2" d="M185.913 222.21h-19.825v-6.308l2.318-7.727a1.8 1.8 0 011.726-1.285h11.737a1.8 1.8 0 011.727 1.284l2.318 7.727z" fill="none" stroke="#187cbc" stroke-linejoin="round" stroke-miterlimit="10" stroke-width="1.802"/>
    <path id="Path_3" data-name="Path 3" d="M4.506 23.43h2.7l.9-2.7H3.6v1.8a.9.9 0 00.906.9zm17.122 0h2.7a.9.9 0 00.9-.9v-1.8h-4.5z" transform="translate(161.582 200.582)" fill="#187cbc"/>
    <path id="Path_4" data-name="Path 4" d="M187.716 212.297l-2.7.9h-18.027l-2.7-.9" fill="none" stroke="#187cbc" stroke-miterlimit="10" stroke-width="1.802"/>
    <path id="Path_5" data-name="Path 5" d="M21.177 14.418a1.352 1.352 0 101.352 1.352 1.352 1.352 0 00-1.352-1.352zm-13.517 0a1.352 1.352 0 101.352 1.352 1.352 1.352 0 00-1.352-1.352zm3.98 5.407l.376-.9h4.8l.376.9h1.958l-1.126-2.7h-7.21l-1.126 2.7z" transform="translate(161.582 200.582)" fill="#187cbc"/>
  </g>
</svg>
